HIERARCHY
ROOT pelvis
{
  OFFSET 0 100 0
  CHANNELS 6 Xposition Yposition Zposition Zrotation Xrotation Yrotation
  JOINT pelvis_right_femur
  {
    OFFSET -10.78128 -3.44521 -0.5502486
    CHANNELS 3 Zrotation Xrotation Yrotation
    JOINT right_femur_tibia
    {
      OFFSET -0.8047443 -44.0398 -0.1307829
      CHANNELS 3 Zrotation Xrotation Yrotation
      JOINT right_tibia_foot
      {
        OFFSET 3.006224 -47.83518 -5
        CHANNELS 3 Zrotation Xrotation Yrotation
        End Site
        {
          OFFSET 0 -5 15
        }
      }
    }
  }
  JOINT pelvis_left_femur
  {
    OFFSET 10.78128 -3.44521 -0.5502486
    CHANNELS 3 Zrotation Xrotation Yrotation
    JOINT left_femur_tibia
    {
      OFFSET 0.8047443 -44.0398 -0.1307829
      CHANNELS 3 Zrotation Xrotation Yrotation
      JOINT left_tibia_foot
      {
        OFFSET -4.370144 -48.10324 -4.275266
        CHANNELS 3 Zrotation Xrotation Yrotation
        End Site
        {
          OFFSET 0 -5 15
        }
      }
    }
  }
  JOINT pelvis_spine1
  {
    OFFSET 0 6.468898 -3.129235
    CHANNELS 3 Zrotation Xrotation Yrotation
    JOINT spine1
    {
      OFFSET 0 23.15396 4.99043
      CHANNELS 3 Zrotation Xrotation Yrotation
      JOINT spine2
      {
        OFFSET 0 20.79997 -5.064912
        CHANNELS 3 Zrotation Xrotation Yrotation
        JOINT neck
        {
          OFFSET 0 14.38658 9.616178
          CHANNELS 3 Zrotation Xrotation Yrotation
          End Site
          {
            OFFSET 0 20 0
          }
        }
      }
      JOINT right_manubrium
      {
        OFFSET -5.722621 16.35077 3.967754
        CHANNELS 3 Zrotation Xrotation Yrotation
        JOINT right_clavicle
        {
          OFFSET -13.16364 1.694482 -4.693211
          CHANNELS 3 Zrotation Xrotation Yrotation
          JOINT right_humerus
          {
            OFFSET -28.5034 -0.3100689 -2.792744
            CHANNELS 3 Zrotation Xrotation Yrotation
            JOINT right_radius
            {
              OFFSET -25.15693 0.02248979 -1.271978
              CHANNELS 3 Zrotation Xrotation Yrotation
              End Site
              {
                OFFSET -15 0 0
              }
            }
          }
        }
      }
      JOINT left_manubrium
      {
        OFFSET 5.722621 16.35077 3.967754
        CHANNELS 3 Zrotation Xrotation Yrotation
        JOINT left_clavicle
        {
          OFFSET 13.16364 1.694482 -4.693211
          CHANNELS 3 Zrotation Xrotation Yrotation
          JOINT left_humerus
          {
            OFFSET 29.39168 -1.063119 -2.237045
            CHANNELS 3 Zrotation Xrotation Yrotation
            JOINT left_radius
            {
              OFFSET 24.59957 -0.9528479 0.9047498
              CHANNELS 3 Zrotation Xrotation Yrotation
              End Site
              {
                OFFSET 15 -0 -0
              }
            }
          }
        }
      }
    }
  }
}
MOTION
Frames: 13
Frame Time: 0.0416666666667
-1200.038 103.0133 2520.849 -7.649384 -4.743007 -70.44658 -1.3089 11.40107 -0.4720419 -0 47.28822 -0 -12.14361 12.62606 1.680263 -5.242697 -7.579786 -10.71174 -0 18.99559 -0 -0.6906313 -10.13651 20.5233 -1.281945 -0.3455008 9.007301 -0.6703212 11.4937 -3.723475 1.698108 20.80743 4.028714 0.8394729 -19.57494 6.06623 -0.6710257 -24.41383 11.4473 83.15297 22.0492 -5.825669 -0 0 24.93098 -25.4811 10.45525 16.48018 2.716852 -16.01892 -2.988689 -91.89586 20.41563 27.99262 0 0 -12.80989 -1.215549 3.715885 15.8697
-1205.362 104.4454 2523.6 -7.873593 -4.556303 -69.68238 -0.9214722 4.931675 -0.9171239 -0 50.70704 -0 -12.92457 14.22898 1.610968 -5.542236 -3.223738 -11.03089 -0 18.62941 -0 -0.226366 -11.57686 20.16436 -1.217295 -0.07566366 8.389383 -0.4003133 11.86342 -4.300111 1.664304 21.12519 4.228437 0.9836844 -19.61847 6.165276 -0.4151814 -23.37292 11.61619 84.65885 22.17674 -8.13129 -0 0 22.29651 -24.89824 10.34409 15.51207 2.630467 -16.89405 -3.498032 -91.08046 20.68581 25.93612 0 0 -13.52877 -0.8197698 3.892931 15.41717
-1210.2 105.5425 2526.093 -8.043616 -4.186846 -68.93917 -0.313708 -1.650326 -1.333832 -0 49.43002 -0 -12.74057 13.04754 0.9322841 -5.38746 0.8860905 -11.19096 -0 16.94469 -0 -0.4985249 -13.40872 19.50517 -1.163632 0.1314561 7.710253 -0.07080233 12.17916 -4.953035 1.609012 21.36617 4.440467 1.133793 -19.72483 6.254903 -0.1605113 -22.30327 11.75578 86.19151 22.34634 -10.57025 -0 0 19.58908 -24.22053 10.25614 14.56641 2.619553 -17.86639 -3.979752 -90.07987 20.88446 23.64173 0 0 -14.66378 -0.299341 4.071551 14.81278
-1214.739 106.0673 2528.403 -7.982439 -3.932953 -68.32379 0.05364905 -7.423356 -1.918327 -0 43.79146 -0 -11.8198 10.31319 -0.03729641 -5.156603 4.649845 -11.20764 -0 14.79752 -0 -1.235808 -15.53553 18.52769 -1.124098 0.2577853 7.017404 0.2987221 12.40751 -5.636256 1.536498 21.49968 4.655089 1.285679 -19.89685 6.330704 0.07662949 -21.28306 11.85083 87.63524 22.53761 -12.97416 -0 0 17.01214 -23.47244 10.18337 13.70445 2.70247 -18.86886 -4.390835 -88.97149 20.98389 21.26432 0 0 -16.16553 0.3167658 4.216219 14.09403
-1219.192 105.9614 2530.607 -7.530212 -3.868932 -67.84903 0.02413412 -12.17402 -2.773798 -0 35.46854 -0 -10.55112 7.23763 -0.9274142 -5.106368 7.921777 -11.02368 -0 12.8925 -0 -1.820377 -17.59497 17.34681 -1.099758 0.3039763 6.36179 0.68221 12.53939 -6.299859 1.452365 21.52073 4.862469 1.436457 -20.13005 6.388606 0.2891799 -20.37871 11.90189 88.89254 22.74471 -15.18592 -0 0 14.72742 -22.69059 10.11404 12.96845 2.871557 -19.83254 -4.704585 -87.85686 20.97571 18.98215 0 0 -17.90135 0.9881358 4.307109 13.31095
-1223.728 105.3042 2532.778 -6.701035 -3.893753 -67.47747 -0.2434662 -16.11454 -3.798163 -0 26.46855 -0 -9.278209 4.718649 -1.531933 -5.290748 10.57658 -10.58116 -0 11.71119 -0 -1.730723 -19.22163 16.23005 -1.088364 0.2870408 5.788767 1.05082 12.5888 -6.897893 1.363566 21.44887 5.053804 1.582691 -20.41073 6.427849 0.476565 -19.63537 11.92143 89.90204 22.9707 -17.08353 -0 0 12.8373 -21.92131 10.04086 12.37765 3.096536 -20.69567 -4.914322 -86.8404 20.87523 16.96503 0 0 -19.68193 1.66676 4.344631 12.52136
-1228.47 104.2479 2534.978 -5.686232 -3.875659 -67.17009 -0.4613672 -19.4965 -4.784526 -0 18.31437 -0 -8.256065 3.272474 -1.817472 -5.612383 12.61676 -9.888275 -0 11.58567 -0 -0.867811 -20.2196 15.4124 -1.085402 0.2325624 5.329272 1.378483 12.58412 -7.39652 1.277364 21.31965 5.221714 1.719278 -20.71661 6.451103 0.6410449 -19.07223 11.92666 90.64531 23.21896 -18.59565 -0 0 11.38107 -21.21292 9.964568 11.93098 3.335434 -21.41272 -5.031192 -86.00439 20.71579 15.33895 0 0 -21.3095 2.304643 4.346301 11.78135
-1233.512 102.974 2537.247 -4.741148 -3.731982 -66.90686 -0.3685785 -22.38536 -5.530942 -0 11.85242 -0 -7.646226 3.023548 -1.845987 -5.91423 14.14013 -9.02783 -0 12.76319 -0 0.4525321 -20.52094 14.93966 -1.086604 0.1656175 4.996522 1.646565 12.5566 -7.778113 1.199522 21.17228 5.36041 1.840133 -21.02139 6.461857 0.7855188 -18.686 11.93325 91.13811 23.48849 -19.70083 -0 0 10.34715 -20.60688 9.891357 11.61558 3.547337 -21.95898 -5.076851 -85.39466 20.53585 14.16826 0 0 -22.62349 2.861867 4.337242 11.13588
-1238.92 101.6785 2539.603 -4.089736 -3.433388 -66.69132 0.2266904 -24.60492 -5.861747 -0 7.489662 -0 -7.52774 3.771897 -1.708456 -6.043143 15.22428 -8.116718 -0 15.46338 -0 1.71932 -20.07165 14.68933 -1.089819 0.105028 4.790474 1.844454 12.53189 -8.038231 1.133272 21.04018 5.465323 1.939403 -21.30002 6.461704 0.912326 -18.46151 11.95223 91.41137 23.7736 -20.40901 -0 0 9.698546 -20.13429 9.828064 11.41701 3.700196 -22.32667 -5.07474 -85.0251 20.36784 13.46711 0 0 -23.51796 3.309408 4.340661 10.61615
-1244.722 100.5724 2542.035 -3.876809 -2.98472 -66.55451 1.43165 -25.78039 -5.622621 -0 5.422839 -0 -7.897348 5.0543 -1.515825 -5.879857 15.82386 -7.261852 -0 19.88158 -0 2.442042 -18.7824 14.47882 -1.095379 0.06207674 4.70594 1.966664 12.52715 -8.178514 1.079642 20.9475 5.532131 2.011825 -21.53143 6.449222 1.022122 -18.38352 11.98992 91.49344 24.0655 -20.73727 -0 0 9.398624 -19.81835 9.779002 11.32661 3.771945 -22.51596 -5.043941 -84.89278 20.23369 13.22681 0 0 -23.9317 3.626521 4.373339 10.24345
-1250.879 99.86819 2544.509 -4.129301 -2.426072 -66.55671 3.183838 -25.45756 -4.74172 -0 5.599157 -0 -8.642037 6.187404 -1.425587 -5.375173 15.71994 -6.523951 -0 26.0936 -0 2.341974 -16.58048 14.18105 -1.105598 0.04132472 4.738905 2.009557 12.55094 -8.20062 1.038418 20.90933 5.555826 2.052374 -21.69887 6.42031 1.112671 -18.44423 12.04879 91.39995 24.35385 -20.69272 -0 0 9.427515 -19.67838 9.745408 11.34471 3.748976 -22.52751 -4.9962 -84.99054 20.14477 13.43795 0 0 -23.83308 3.797298 4.445342 10.0335
-1257.256 99.73586 2546.968 -4.735484 -1.85823 -66.77621 5.146527 -23.3326 -3.340147 -0 7.499149 -0 -9.538802 6.438937 -1.620999 -4.601421 14.55079 -5.909473 -0 33.89094 -0 1.533347 -13.5571 13.8287 -1.124148 0.04105091 4.888781 1.969904 12.60273 -8.10367 1.009078 20.93164 5.530506 2.055971 -21.78984 6.369362 1.177696 -18.64565 12.12737 91.13061 24.62747 -20.26659 -0 0 9.787915 -19.73074 9.726443 11.48046 3.626427 -22.35986 -4.934436 -85.31092 20.10227 14.09705 0 0 -23.2173 3.810082 4.560466 9.99727
-1263.637 100.2346 2549.346 -5.504541 -1.455375 -67.27507 6.781482 -19.52093 -1.745946 -0 10.08606 -0 -10.35375 5.404824 -2.163143 -3.753208 11.95595 -5.43786 -0 42.61118 -0 0.496097 -10.15182 13.62397 -1.155394 0.05266848 5.157142 1.845587 12.67104 -7.884964 0.9915194 21.0093 5.450061 2.017696 -21.79652 6.290932 1.206138 -18.99781 12.21899 90.67025 24.8735 -19.43778 -0 0 10.50358 -19.98606 9.720955 11.74994 3.411365 -22.01114 -4.851818 -85.84216 20.09661 15.19923 0 0 -22.11826 3.659925 4.715011 10.13825
